<svg width="93" height="101" viewBox="0 0 93 101" xmlns="http://www.w3.org/2000/svg">
    <defs>
        <linearGradient x1="50%" y1="21.09%" x2="50%" y2="60.11%" id="a">
            <stop stop-color="#8892BE" offset="0%" />
            <stop stop-color="#4F5B93" offset="100%" />
        </linearGradient>
    </defs>
    <path
        d="M88.46 79.17c-1.67 2.68-3.42 3.94-5.24 3.79-1.83-.15-4.79-1.51-8.89-4.07a596.52 596.52 0 00-20.48-12.45c.69 16.02-.06 25.78-2.26 29.3-2.71 4.34-5.66 5.53-8.84 3.54-1.93-1.2-2.8-11.17-2.6-29.9a79.27 79.27 0 00-.35-7.53c-4.22 1.9-10 4.92-17.35 9.05a189.6 189.6 0 00-6.76 3.27c-5.6 3.02-9.74 3.69-12.42 2.01-2.67-1.67-3.2-3.8-1.58-6.4 1.51-2.42 6.1-5.84 13.73-10.25 6.14-3.5 11.05-5.95 14.73-7.38-1.59-.99-5.3-3.16-11.11-6.5a938.35 938.35 0 01-9.36-5.41c-6.52-4.08-8.66-7.92-6.41-11.51 2.2-3.52 4.7-5.1 7.5-4.74 2.36.31 6.61 2.39 12.76 6.23a389.41 389.41 0 0016.86 10.01c-1.87-20.82-1.9-32.7-.07-35.63C43.15.1 46.52-.94 50.45 1.51c2.18 1.36 3.25 12.03 3.2 32.01-.01 3.94 0 6.45.02 7.51l9.98-5.63 10.87-5.94c8.08-4.37 13.2-5.88 15.38-4.52 2.84 1.78 3.27 4.25 1.29 7.43-2.3 3.68-12.9 10.32-31.8 19.9a473.4 473.4 0 0125.89 14.97c5.15 3.1 6.21 7.08 3.18 11.93z"
        fill="url(#a)"
        fill-rule="nonzero"
    />
</svg>
